AmstelvarA2-Italic_XUCS259.ufo
<glyph name="B" format="2">
  <advance width="1344"/>
  <unicode hex="0042"/>
  <anchor x="767" y="0" name="bottom"/>
  <anchor x="767" y="1500" name="top"/>
  <outline>
    <contour>
      <point x="71" y="0" type="line"/>
      <point x="90" y="100" type="line"/>
      <point x="286" y="126" type="line"/>
      <point x="414" y="784" type="line"/>
      <point x="523" y="1362" type="line"/>
      <point x="330" y="1386" type="line"/>
      <point x="343" y="1500" type="line"/>
      <point x="891" y="1500" type="line" smooth="yes"/>
      <point x="1083" y="1500"/>
      <point x="1249" y="1308"/>
      <point x="1235" y="1163" type="qcurve" smooth="yes"/>
      <point x="1222" y="1028"/>
      <point x="1047" y="854"/>
      <point x="941" y="830" type="qcurve"/>
      <point x="940" y="823" type="line"/>
      <point x="1086" y="789"/>
      <point x="1236" y="575"/>
      <point x="1210" y="413" type="qcurve" smooth="yes"/>
      <point x="1180" y="226"/>
      <point x="873" y="0"/>
      <point x="663" y="0" type="qcurve" smooth="yes"/>
    </contour>
    <contour>
      <point x="450" y="125" type="line"/>
      <point x="485" y="105" type="line"/>
      <point x="635" y="105" type="line" smooth="yes"/>
      <point x="803" y="105"/>
      <point x="1005" y="251"/>
      <point x="1030" y="420" type="qcurve" smooth="yes"/>
      <point x="1051" y="565"/>
      <point x="926" y="743"/>
      <point x="786" y="743" type="qcurve" smooth="yes"/>
      <point x="565" y="743" type="line"/>
      <point x="563" y="729" type="line"/>
    </contour>
    <contour>
      <point x="592" y="880" type="line"/>
      <point x="587" y="857" type="line"/>
      <point x="739" y="857" type="line" smooth="yes"/>
      <point x="868" y="857"/>
      <point x="1036" y="991"/>
      <point x="1049" y="1129" type="qcurve" smooth="yes"/>
      <point x="1061" y="1257"/>
      <point x="951" y="1380"/>
      <point x="828" y="1380" type="qcurve" smooth="yes"/>
      <point x="715" y="1380" type="line"/>
      <point x="686" y="1362" type="line"/>
    </contour>
  </outline>
</glyph>
<glyph name="C" format="2">
  <advance width="1351"/>
  <unicode hex="0043"/>
  <anchor x="644.0728155339806" y="0" name="bottom"/>
  <anchor x="954.0728155339806" y="1500" name="top"/>
  <outline>
    <contour>
      <point x="145.0728155339806" y="839" type="qcurve" smooth="yes"/>
      <point x="232.0728155339806" y="1165"/>
      <point x="771.0728155339806" y="1565"/>
      <point x="1044.0728155339805" y="1523" type="qcurve" smooth="yes"/>
      <point x="1121.0728155339805" y="1512"/>
      <point x="1241.0728155339805" y="1473"/>
      <point x="1291.0728155339805" y="1448" type="qcurve"/>
      <point x="1317.0728155339805" y="1434" type="line"/>
      <point x="1341.0728155339805" y="1420" type="line"/>
      <point x="1278.0728155339805" y="1055" type="line"/>
      <point x="1170.0728155339805" y="1055" type="line"/>
      <point x="1180.0728155339805" y="1264" type="line"/>
      <point x="1149.0728155339805" y="1323"/>
      <point x="1033.0728155339805" y="1381"/>
      <point x="981.0728155339806" y="1389" type="qcurve" smooth="yes"/>
      <point x="760.0728155339806" y="1423"/>
      <point x="409.0728155339806" y="1151"/>
      <point x="332.0728155339806" y="842" type="qcurve" smooth="yes"/>
      <point x="259.0728155339806" y="552"/>
      <point x="423.0728155339806" y="151"/>
      <point x="619.0728155339806" y="121" type="qcurve" smooth="yes"/>
      <point x="810.0728155339806" y="92"/>
      <point x="1095.0728155339805" y="215"/>
      <point x="1185.0728155339805" y="351" type="qcurve"/>
      <point x="1209.0728155339805" y="337" type="line"/>
      <point x="1232.0728155339805" y="262" type="line"/>
      <point x="1108.0728155339805" y="84"/>
      <point x="772.0728155339806" y="-40"/>
      <point x="570.0728155339806" y="-16" type="qcurve" smooth="yes"/>
      <point x="302.0728155339806" y="16"/>
      <point x="60.072815533980574" y="523"/>
    </contour>
  </outline>
</glyph>
<glyph name="D" format="2">
  <advance width="1668"/>
  <unicode hex="0044"/>
  <anchor x="828.0" y="0" name="bottom"/>
  <anchor x="590.0" y="754.0" name="center"/>
  <anchor x="969.0" y="1500" name="top"/>
  <outline>
    <contour>
      <point x="77" y="0" type="line"/>
      <point x="96" y="100" type="line"/>
      <point x="292" y="125" type="line"/>
      <point x="410" y="754" type="line"/>
      <point x="519" y="1362" type="line"/>
      <point x="316" y="1386" type="line"/>
      <point x="329" y="1500" type="line"/>
      <point x="927" y="1500" type="line" smooth="yes"/>
      <point x="1260" y="1500"/>
      <point x="1588" y="1087"/>
      <point x="1520" y="755" type="qcurve" smooth="yes"/>
      <point x="1450" y="410"/>
      <point x="979" y="0"/>
      <point x="619" y="0" type="qcurve" smooth="yes"/>
    </contour>
    <contour>
      <point x="455" y="128" type="line"/>
      <point x="485" y="122"/>
      <point x="617" y="106"/>
      <point x="685" y="106" type="qcurve" smooth="yes"/>
      <point x="947" y="106"/>
      <point x="1277" y="440"/>
      <point x="1339" y="762" type="qcurve" smooth="yes"/>
      <point x="1398" y="1065"/>
      <point x="1152" y="1379"/>
      <point x="912" y="1379" type="qcurve" smooth="yes"/>
      <point x="841" y="1379"/>
      <point x="717" y="1367"/>
      <point x="684" y="1362" type="qcurve"/>
      <point x="570" y="754" type="line"/>
    </contour>
  </outline>
</glyph>
<glyph name="E" format="2">
  <advance width="1439"/>
  <unicode hex="0045"/>
  <anchor x="665.0" y="0" name="bottom"/>
  <anchor x="974" y="0" name="ogonek"/>
  <anchor x="936.0" y="1500" name="top"/>
  <anchor x="188.0" y="1500" name="tonos"/>
  <outline>
    <contour>
      <point x="81" y="0" type="line"/>
      <point x="100" y="100" type="line"/>
      <point x="286" y="127" type="line"/>
      <point x="414" y="783" type="line"/>
      <point x="523" y="1362" type="line"/>
      <point x="330" y="1386" type="line"/>
      <point x="343" y="1500" type="line"/>
      <point x="1320" y="1500" type="line"/>
      <point x="1282" y="1152" type="line"/>
      <point x="1183" y="1152" type="line"/>
      <point x="1176" y="1382" type="line"/>
      <point x="723" y="1382" type="line"/>
      <point x="688" y="1362" type="line"/>
      <point x="573" y="794" type="line"/>
      <point x="454" y="136" type="line"/>
      <point x="469" y="108" type="line"/>
      <point x="1005" y="108" type="line"/>
      <point x="1096" y="378" type="line"/>
      <point x="1196" y="378" type="line"/>
      <point x="1117" y="0" type="line"/>
    </contour>
    <contour>
      <point x="490" y="776" type="line"/>
      <point x="508" y="858" type="line"/>
      <point x="926" y="865" type="line"/>
      <point x="985" y="1024" type="line"/>
      <point x="1095" y="1024" type="line"/>
      <point x="1010" y="588" type="line"/>
      <point x="910" y="588" type="line"/>
      <point x="914" y="749" type="line"/>
    </contour>
  </outline>
</glyph>
<glyph name="F" format="2">
  <advance width="1327"/>
  <unicode hex="0046"/>
  <anchor x="735.0" y="0" name="bottom"/>
  <anchor x="779.0" y="1500" name="top"/>
  <outline>
    <contour>
      <point x="81" y="0" type="line"/>
      <point x="100" y="100" type="line"/>
      <point x="287" y="127" type="line"/>
      <point x="410" y="760" type="line"/>
      <point x="523" y="1362" type="line"/>
      <point x="340" y="1386" type="line"/>
      <point x="353" y="1500" type="line"/>
      <point x="1260" y="1500" type="line"/>
      <point x="1223" y="1152" type="line"/>
      <point x="1133" y="1152" type="line"/>
      <point x="1119" y="1392" type="line"/>
      <point x="715" y="1392" type="line"/>
      <point x="689" y="1372" type="line"/>
      <point x="570" y="760" type="line"/>
      <point x="450" y="122" type="line"/>
      <point x="660" y="100" type="line"/>
      <point x="641" y="0" type="line"/>
    </contour>
    <contour>
      <point x="489" y="751" type="line"/>
      <point x="508" y="851" type="line"/>
      <point x="894" y="858" type="line"/>
      <point x="959" y="1019" type="line"/>
      <point x="1059" y="1019" type="line"/>
      <point x="968" y="553" type="line"/>
      <point x="868" y="553" type="line"/>
      <point x="871" y="742" type="line"/>
    </contour>
  </outline>
</glyph>
<glyph name="G" format="2">
  <advance width="1543"/>
  <unicode hex="0047"/>
  <anchor x="715" y="0" name="bottom"/>
  <anchor x="955" y="1492" name="top"/>
  <outline>
    <contour>
      <point x="145" y="839" type="qcurve" smooth="yes"/>
      <point x="232" y="1173"/>
      <point x="768" y="1562"/>
      <point x="1054" y="1523" type="qcurve" smooth="yes"/>
      <point x="1121" y="1514"/>
      <point x="1245" y="1477"/>
      <point x="1278" y="1461" type="qcurve" smooth="yes"/>
      <point x="1319" y="1441" type="line"/>
      <point x="1361" y="1420" type="line"/>
      <point x="1299" y="1076" type="line"/>
      <point x="1191" y="1076" type="line"/>
      <point x="1202" y="1290" type="line"/>
      <point x="1170" y="1322"/>
      <point x="1057" y="1381"/>
      <point x="991" y="1389" type="qcurve" smooth="yes"/>
      <point x="779" y="1416"/>
      <point x="409" y="1151"/>
      <point x="332" y="842" type="qcurve" smooth="yes"/>
      <point x="259" y="552"/>
      <point x="423" y="155"/>
      <point x="619" y="121" type="qcurve" smooth="yes"/>
      <point x="753" y="98"/>
      <point x="995" y="154"/>
      <point x="1095" y="223" type="qcurve"/>
      <point x="1168" y="586" type="line"/>
      <point x="999" y="611" type="line"/>
      <point x="1011" y="712" type="line"/>
      <point x="1461" y="712" type="line"/>
      <point x="1447" y="610" type="line"/>
      <point x="1327" y="585" type="line"/>
      <point x="1247" y="162" type="line"/>
      <point x="1135" y="109" type="line"/>
      <point x="1022" y="41"/>
      <point x="746" y="-37"/>
      <point x="570" y="-16" type="qcurve" smooth="yes"/>
      <point x="302" y="16"/>
      <point x="63" y="523"/>
    </contour>
  </outline>
</glyph>
<glyph name="H" format="2">
  <advance width="1860"/>
  <unicode hex="0048"/>
  <anchor x="607.0" y="0" name="bottom"/>
  <anchor x="820.0" y="1079.0" name="center"/>
  <anchor x="950.0" y="1500" name="top"/>
  <anchor x="80.0" y="1500" name="tonos"/>
  <outline>
    <contour>
      <point x="74" y="0" type="line"/>
      <point x="93" y="100" type="line"/>
      <point x="280" y="120" type="line"/>
      <point x="419" y="806" type="line"/>
      <point x="518" y="1362" type="line"/>
      <point x="324" y="1385" type="line"/>
      <point x="336" y="1500" type="line"/>
      <point x="893" y="1500" type="line"/>
      <point x="871" y="1385" type="line"/>
      <point x="687" y="1362" type="line"/>
      <point x="575" y="790" type="line"/>
      <point x="449" y="120" type="line"/>
      <point x="640" y="100" type="line"/>
      <point x="631" y="0" type="line"/>
    </contour>
    <contour>
      <point x="485" y="738" type="line"/>
      <point x="506" y="855" type="line"/>
      <point x="949" y="851" type="line"/>
      <point x="1395" y="855" type="line"/>
      <point x="1374" y="738" type="line"/>
      <point x="930" y="742" type="line"/>
    </contour>
    <contour>
      <point x="964" y="0" type="line"/>
      <point x="983" y="100" type="line"/>
      <point x="1170" y="120" type="line"/>
      <point x="1304" y="788" type="line"/>
      <point x="1408" y="1362" type="line"/>
      <point x="1214" y="1385" type="line"/>
      <point x="1226" y="1500" type="line"/>
      <point x="1782" y="1500" type="line"/>
      <point x="1760" y="1385" type="line"/>
      <point x="1577" y="1362" type="line"/>
      <point x="1460" y="771" type="line"/>
      <point x="1339" y="120" type="line"/>
      <point x="1529" y="100" type="line"/>
      <point x="1520" y="0" type="line"/>
    </contour>
  </outline>
</glyph>
<glyph name="I" format="2">
  <advance width="971"/>
  <unicode hex="0049"/>
  <anchor x="347.0" y="0" name="bottom"/>
  <anchor x="483" y="0" name="ogonek"/>
  <anchor x="630.0" y="1500" name="top"/>
  <anchor x="208.0" y="1500" name="tonos"/>
  <anchor x="492" y="795" name="yu_dash"/>
  <outline>
    <contour>
      <point x="71" y="0" type="line"/>
      <point x="90" y="102" type="line"/>
      <point x="285" y="127" type="line"/>
      <point x="408" y="754" type="line"/>
      <point x="522" y="1363" type="line"/>
      <point x="320" y="1386" type="line"/>
      <point x="333" y="1500" type="line"/>
      <point x="903" y="1500" type="line"/>
      <point x="880" y="1386" type="line"/>
      <point x="686" y="1363" type="line"/>
      <point x="568" y="754" type="line"/>
      <point x="449" y="128" type="line"/>
      <point x="650" y="102" type="line"/>
      <point x="631" y="0" type="line"/>
    </contour>
  </outline>
</glyph>
<glyph name="K" format="2">
  <advance width="1449"/>
  <unicode hex="004B"/>
  <anchor x="754.0" y="0" name="bottom"/>
  <anchor x="1043.0" y="1500" name="top"/>
  <anchor x="1348" y="100" name="kai_tail"/>
  <outline>
    <contour>
      <point x="81" y="0" type="line"/>
      <point x="90" y="100" type="line"/>
      <point x="286" y="125" type="line"/>
      <point x="409" y="754" type="line"/>
      <point x="523" y="1362" type="line"/>
      <point x="330" y="1386" type="line"/>
      <point x="343" y="1500" type="line"/>
      <point x="885" y="1500" type="line"/>
      <point x="872" y="1386" type="line"/>
      <point x="690" y="1362" type="line"/>
      <point x="569" y="754" type="line"/>
      <point x="458" y="124" type="line"/>
      <point x="642" y="100" type="line"/>
      <point x="633" y="0" type="line"/>
    </contour>
    <contour>
      <point x="450" y="540" type="line"/>
      <point x="478" y="693" type="line"/>
      <point x="1172" y="1348" type="line"/>
      <point x="1068" y="1386" type="line"/>
      <point x="1081" y="1500" type="line"/>
      <point x="1501" y="1500" type="line"/>
      <point x="1488" y="1386" type="line"/>
      <point x="1327" y="1348" type="line"/>
    </contour>
    <contour>
      <point x="736" y="874" type="line"/>
      <point x="864" y="993" type="line"/>
      <point x="1194" y="125" type="line"/>
      <point x="1348" y="100" type="line"/>
      <point x="1339" y="0" type="line"/>
      <point x="872" y="0" type="line"/>
      <point x="881" y="100" type="line"/>
      <point x="1022" y="124" type="line"/>
    </contour>
  </outline>
</glyph>
<glyph name="L" format="2">
  <advance width="1363"/>
  <unicode hex="004C"/>
  <anchor x="674.0" y="0" name="bottom"/>
  <anchor x="894.0" y="750.0" name="centerright"/>
  <anchor x="1017.0" y="1500" name="top"/>
  <anchor x="943.0" y="1001" name="topright"/>
  <anchor x="536.0" y="750.0" name="center"/>
  <outline>
    <contour>
      <point x="80" y="0" type="line"/>
      <point x="90" y="100" type="line"/>
      <point x="286" y="122" type="line"/>
      <point x="409" y="754" type="line"/>
      <point x="523" y="1353" type="line"/>
      <point x="322" y="1387" type="line"/>
      <point x="334" y="1500" type="line"/>
      <point x="906" y="1500" type="line"/>
      <point x="894" y="1387" type="line"/>
      <point x="687" y="1353" type="line"/>
      <point x="569" y="754" type="line"/>
      <point x="450" y="135" type="line"/>
      <point x="481" y="108" type="line"/>
      <point x="937" y="108" type="line"/>
      <point x="1096" y="341" type="line"/>
      <point x="1207" y="341" type="line"/>
      <point x="1058" y="0" type="line"/>
    </contour>
  </outline>
</glyph>
<glyph name="M" format="2">
  <advance width="2204"/>
  <unicode hex="004D"/>
  <anchor x="925.0" y="0" name="bottom"/>
  <anchor x="1205.0" y="1500" name="top"/>
  <outline>
    <contour>
      <point x="86" y="0" type="line"/>
      <point x="95" y="100" type="line"/>
      <point x="286" y="115" type="line"/>
      <point x="409" y="754" type="line"/>
      <point x="523" y="1372" type="line"/>
      <point x="340" y="1386" type="line"/>
      <point x="353" y="1500" type="line"/>
      <point x="773" y="1500" type="line"/>
      <point x="892" y="786" type="line"/>
      <point x="972" y="327" type="line"/>
      <point x="988" y="213" type="line"/>
      <point x="998" y="213" type="line"/>
      <point x="1057" y="327" type="line"/>
      <point x="1329" y="820" type="line"/>
      <point x="1705" y="1500" type="line"/>
      <point x="2126" y="1500" type="line"/>
      <point x="2105" y="1386" type="line"/>
      <point x="1918" y="1372" type="line"/>
      <point x="1800" y="754" type="line"/>
      <point x="1681" y="115" type="line"/>
      <point x="1873" y="100" type="line"/>
      <point x="1864" y="0" type="line"/>
      <point x="1305" y="0" type="line"/>
      <point x="1314" y="100" type="line"/>
      <point x="1517" y="115" type="line"/>
      <point x="1640" y="754" type="line"/>
      <point x="1737" y="1244" type="line"/>
      <point x="1763" y="1363" type="line"/>
      <point x="1754" y="1365" type="line"/>
      <point x="1696" y="1258" type="line"/>
      <point x="1414" y="758" type="line"/>
      <point x="982" y="-8" type="line"/>
      <point x="871" y="-8" type="line"/>
      <point x="745" y="750" type="line"/>
      <point x="656" y="1249" type="line"/>
      <point x="642" y="1357" type="line"/>
      <point x="631" y="1355" type="line"/>
      <point x="613" y="1235" type="line"/>
      <point x="517" y="754" type="line"/>
      <point x="398" y="115" type="line"/>
      <point x="594" y="100" type="line"/>
      <point x="575" y="0" type="line"/>
    </contour>
  </outline>
</glyph>
<glyph name="N" format="2">
  <advance width="1589"/>
  <unicode hex="004E"/>
  <anchor x="797.0" y="0" name="bottom"/>
  <anchor x="1041.0" y="1500" name="top"/>
  <outline>
    <contour>
      <point x="81" y="0" type="line"/>
      <point x="90" y="100" type="line"/>
      <point x="286" y="125" type="line"/>
      <point x="409" y="754" type="line"/>
      <point x="523" y="1362" type="line"/>
      <point x="340" y="1386" type="line"/>
      <point x="353" y="1500" type="line"/>
      <point x="750" y="1500" type="line"/>
      <point x="976" y="820" type="line"/>
      <point x="1115" y="418" type="line"/>
      <point x="1147" y="317" type="line"/>
      <point x="1158" y="319" type="line"/>
      <point x="1181" y="440" type="line"/>
      <point x="1244" y="754" type="line"/>
      <point x="1359" y="1362" type="line"/>
      <point x="1158" y="1386" type="line"/>
      <point x="1174" y="1500" type="line"/>
      <point x="1678" y="1500" type="line"/>
      <point x="1662" y="1386" type="line"/>
      <point x="1468" y="1362" type="line"/>
      <point x="1350" y="754" type="line"/>
      <point x="1198" y="0" type="line"/>
      <point x="1087" y="0" type="line"/>
      <point x="836" y="748" type="line"/>
      <point x="664" y="1220" type="line"/>
      <point x="628" y="1324" type="line"/>
      <point x="618" y="1321" type="line"/>
      <point x="599" y="1199" type="line"/>
      <point x="514" y="754" type="line"/>
      <point x="395" y="125" type="line"/>
      <point x="586" y="100" type="line"/>
      <point x="577" y="0" type="line"/>
    </contour>
  </outline>
</glyph>
<glyph name="O" format="2">
  <advance width="1640"/>
  <unicode hex="004F"/>
  <anchor x="662" y="0" name="bottom"/>
  <anchor x="815" y="756.0" name="center"/>
  <anchor x="894" y="0" name="ogonek"/>
  <anchor x="956" y="1500" name="top"/>
  <anchor x="1094" y="1500" name="topright"/>
  <anchor x="290" y="1500" name="tonos"/>
  <anchor x="224" y="795" name="_yu_dash"/>
  <outline>
    <contour>
      <point x="153" y="868" type="qcurve" smooth="yes"/>
      <point x="238" y="1194"/>
      <point x="739" y="1562"/>
      <point x="1012" y="1519" type="qcurve" smooth="yes"/>
      <point x="1303" y="1473"/>
      <point x="1561" y="1000"/>
      <point x="1481" y="656" type="qcurve" smooth="yes"/>
      <point x="1394" y="283"/>
      <point x="897" y="-56"/>
      <point x="616" y="-17" type="qcurve" smooth="yes"/>
      <point x="330" y="23"/>
      <point x="65" y="530"/>
    </contour>
    <contour>
      <point x="334" y="849" type="qcurve" smooth="yes"/>
      <point x="261" y="559"/>
      <point x="430" y="149"/>
      <point x="646" y="117" type="qcurve" smooth="yes"/>
      <point x="888" y="81"/>
      <point x="1221" y="352"/>
      <point x="1294" y="666" type="qcurve" smooth="yes"/>
      <point x="1361" y="955"/>
      <point x="1198" y="1351"/>
      <point x="980" y="1384" type="qcurve" smooth="yes"/>
      <point x="757" y="1418"/>
      <point x="411" y="1158"/>
    </contour>
  </outline>
</glyph>
<glyph name="P" format="2">
  <advance width="1305"/>
  <unicode hex="0050"/>
  <anchor x="788.0" y="0" name="bottom"/>
  <anchor x="788.0" y="1500" name="top"/>
  <outline>
    <contour>
      <point x="87" y="0" type="line"/>
      <point x="96" y="100" type="line"/>
      <point x="293" y="127" type="line"/>
      <point x="410" y="754" type="line"/>
      <point x="520" y="1362" type="line"/>
      <point x="337" y="1386" type="line"/>
      <point x="350" y="1500" type="line"/>
      <point x="922" y="1500" type="line" smooth="yes"/>
      <point x="1139" y="1500"/>
      <point x="1342" y="1263"/>
      <point x="1305" y="1051" type="qcurve" smooth="yes"/>
      <point x="1267" y="831"/>
      <point x="961" y="599"/>
      <point x="757" y="599" type="qcurve" smooth="yes"/>
      <point x="658" y="599"/>
      <point x="510" y="620"/>
      <point x="471" y="628" type="qcurve"/>
      <point x="491" y="733" type="line"/>
      <point x="548" y="716"/>
      <point x="650" y="707"/>
      <point x="743" y="707" type="qcurve" smooth="yes"/>
      <point x="898" y="707"/>
      <point x="1105" y="901"/>
      <point x="1131" y="1072" type="qcurve" smooth="yes"/>
      <point x="1155" y="1228"/>
      <point x="1037" y="1382"/>
      <point x="892" y="1382" type="qcurve" smooth="yes"/>
      <point x="707" y="1382" type="line"/>
      <point x="681" y="1360" type="line"/>
      <point x="573" y="764" type="line"/>
      <point x="456" y="122" type="line"/>
      <point x="656" y="100" type="line"/>
      <point x="647" y="0" type="line"/>
    </contour>
  </outline>
</glyph>
<glyph name="Q" format="2">
  <advance width="1640"/>
  <unicode hex="0051"/>
  <anchor x="882" y="0" name="bottom"/>
  <anchor x="882" y="1500" name="top"/>
  <outline>
    <contour>
      <point x="153" y="867" type="qcurve" smooth="yes"/>
      <point x="238" y="1193"/>
      <point x="739" y="1562"/>
      <point x="1012" y="1519" type="qcurve" smooth="yes"/>
      <point x="1303" y="1473"/>
      <point x="1561" y="996"/>
      <point x="1481" y="656" type="qcurve" smooth="yes"/>
      <point x="1395" y="290"/>
      <point x="881" y="-35"/>
      <point x="618" y="5" type="qcurve" smooth="yes"/>
      <point x="349" y="46"/>
      <point x="65" y="529"/>
    </contour>
    <contour>
      <point x="334" y="849" type="qcurve" smooth="yes"/>
      <point x="261" y="559"/>
      <point x="430" y="149"/>
      <point x="646" y="117" type="qcurve" smooth="yes"/>
      <point x="888" y="81"/>
      <point x="1220" y="353"/>
      <point x="1294" y="666" type="qcurve" smooth="yes"/>
      <point x="1362" y="953"/>
      <point x="1198" y="1351"/>
      <point x="980" y="1384" type="qcurve" smooth="yes"/>
      <point x="757" y="1418"/>
      <point x="411" y="1158"/>
    </contour>
    <contour>
      <point x="432" y="-3" type="qcurve"/>
      <point x="1141" y="-315" type="line" smooth="yes"/>
      <point x="1203" y="-342"/>
      <point x="1325" y="-250"/>
      <point x="1359" y="-199" type="qcurve"/>
      <point x="1432" y="-262" type="line"/>
      <point x="1385" y="-359"/>
      <point x="1228" y="-480"/>
      <point x="1111" y="-463" type="qcurve"/>
      <point x="396" y="-142" type="line"/>
      <point x="344" y="-134"/>
      <point x="237" y="-162"/>
      <point x="178" y="-205" type="qcurve"/>
      <point x="127" y="-134" type="line"/>
      <point x="189" y="-57"/>
      <point x="346" y="5"/>
    </contour>
    <contour>
      <point x="370" y="-53" type="line"/>
      <point x="476" y="75"/>
      <point x="594" y="207"/>
      <point x="686" y="312" type="qcurve" smooth="yes"/>
      <point x="693" y="320"/>
      <point x="704" y="332"/>
      <point x="716" y="344" type="qcurve"/>
      <point x="741" y="334"/>
      <point x="789" y="298"/>
      <point x="801" y="285" type="qcurve"/>
      <point x="792" y="272"/>
      <point x="779" y="256"/>
      <point x="770" y="246" type="qcurve" smooth="yes"/>
      <point x="679" y="153"/>
      <point x="556" y="28"/>
      <point x="451" y="-88" type="qcurve"/>
    </contour>
  </outline>
</glyph>
<glyph name="R" format="2">
  <advance width="1369"/>
  <unicode hex="0052"/>
  <anchor x="730.0" y="0" name="bottom"/>
  <anchor x="907.0" y="1500" name="top"/>
  <outline>
    <contour>
      <point x="71" y="0" type="line"/>
      <point x="90" y="100" type="line"/>
      <point x="286" y="126" type="line"/>
      <point x="409" y="754" type="line"/>
      <point x="523" y="1362" type="line"/>
      <point x="340" y="1386" type="line"/>
      <point x="353" y="1500" type="line"/>
      <point x="911" y="1500" type="line" smooth="yes"/>
      <point x="1104" y="1500"/>
      <point x="1286" y="1288"/>
      <point x="1253" y="1122" type="qcurve" smooth="yes"/>
      <point x="1219" y="953"/>
      <point x="933" y="746"/>
      <point x="796" y="746" type="qcurve" smooth="yes"/>
      <point x="735" y="746"/>
      <point x="539" y="745"/>
      <point x="488" y="750" type="qcurve"/>
      <point x="506" y="845" type="line"/>
      <point x="610" y="845" type="line"/>
      <point x="748" y="845" type="line" smooth="yes"/>
      <point x="907" y="845"/>
      <point x="1043" y="977"/>
      <point x="1069" y="1116" type="qcurve" smooth="yes"/>
      <point x="1091" y="1232"/>
      <point x="997" y="1382"/>
      <point x="873" y="1382" type="qcurve" smooth="yes"/>
      <point x="721" y="1382" type="line"/>
      <point x="691" y="1364" type="line"/>
      <point x="569" y="754" type="line"/>
      <point x="450" y="126" type="line"/>
      <point x="639" y="100" type="line"/>
      <point x="620" y="0" type="line"/>
    </contour>
    <contour>
      <point x="773" y="792" type="line"/>
      <point x="924" y="820" type="line"/>
      <point x="937" y="718" type="line" smooth="yes"/>
      <point x="962" y="524"/>
      <point x="1103" y="130"/>
      <point x="1290" y="99" type="qcurve"/>
      <point x="1261" y="0" type="line"/>
      <point x="1185" y="0" type="line" smooth="yes"/>
      <point x="985" y="0"/>
      <point x="813" y="447"/>
      <point x="786" y="681" type="qcurve" smooth="yes"/>
    </contour>
  </outline>
</glyph>
<glyph name="T" format="2">
  <advance width="1469"/>
  <unicode hex="0054"/>
  <anchor x="601.0" y="0" name="bottom"/>
  <anchor x="734.0" y="750.0" name="center"/>
  <anchor x="882.0" y="1500" name="top"/>
  <anchor x="905.0" y="100" name="cy_descender"/>
  <outline>
    <contour>
      <point x="251" y="1099" type="line"/>
      <point x="334" y="1500" type="line"/>
      <point x="1431" y="1500" type="line"/>
      <point x="1348" y="1099" type="line"/>
      <point x="1248" y="1099" type="line"/>
      <point x="1276" y="1382" type="line"/>
      <point x="958" y="1382" type="line"/>
      <point x="944" y="1362" type="line"/>
      <point x="825" y="754" type="line"/>
      <point x="703" y="125" type="line"/>
      <point x="895" y="100" type="line"/>
      <point x="887" y="0" type="line"/>
      <point x="328" y="0" type="line"/>
      <point x="336" y="100" type="line"/>
      <point x="536" y="125" type="line"/>
      <point x="665" y="754" type="line"/>
      <point x="781" y="1362" type="line"/>
      <point x="777" y="1382" type="line"/>
      <point x="443" y="1382" type="line"/>
      <point x="351" y="1099" type="line"/>
    </contour>
  </outline>
</glyph>
<glyph name="U" format="2">
  <advance width="1738"/>
  <unicode hex="0055"/>
  <anchor x="709.0" y="0" name="bottom"/>
  <anchor x="931.0" y="0" name="ogonek"/>
  <anchor x="1029.0" y="1500" name="top"/>
  <anchor x="1682.0" y="1500" name="topright"/>
  <outline>
    <contour>
      <point x="300" y="1386" type="line"/>
      <point x="314" y="1500" type="line"/>
      <point x="855" y="1500" type="line"/>
      <point x="841" y="1386" type="line"/>
      <point x="666" y="1362" type="line"/>
      <point x="548" y="794" type="line" smooth="yes"/>
      <point x="529" y="702"/>
      <point x="493" y="454"/>
      <point x="493" y="374" type="qcurve" smooth="yes"/>
      <point x="493" y="268"/>
      <point x="641" y="104"/>
      <point x="769" y="104" type="qcurve" smooth="yes"/>
      <point x="936" y="104"/>
      <point x="1146" y="277"/>
      <point x="1189" y="494" type="qcurve" smooth="yes"/>
      <point x="1248" y="794" type="line"/>
      <point x="1346" y="1362" type="line"/>
      <point x="1154" y="1386" type="line"/>
      <point x="1168" y="1500" type="line"/>
      <point x="1682" y="1500" type="line"/>
      <point x="1668" y="1386" type="line"/>
      <point x="1483" y="1362" type="line"/>
      <point x="1372" y="794" type="line"/>
      <point x="1317" y="493" type="line" smooth="yes"/>
      <point x="1265" y="209"/>
      <point x="977" y="-22"/>
      <point x="750" y="-22" type="qcurve" smooth="yes"/>
      <point x="551" y="-22"/>
      <point x="315" y="178"/>
      <point x="318" y="364" type="qcurve" smooth="yes"/>
      <point x="319" y="444"/>
      <point x="352" y="615"/>
      <point x="386" y="794" type="qcurve" smooth="yes"/>
      <point x="493" y="1362" type="line"/>
    </contour>
  </outline>
</glyph>
<glyph name="Thorn" format="2">
  <advance width="1397"/>
  <unicode hex="00DE"/>
  <outline>
    <contour>
      <point x="654" y="1249" type="line"/>
      <point x="955" y="1249" type="line" smooth="yes"/>
      <point x="1172" y="1249"/>
      <point x="1388" y="977"/>
      <point x="1346" y="765" type="qcurve" smooth="yes"/>
      <point x="1305" y="558"/>
      <point x="1006" y="328"/>
      <point x="781" y="328" type="qcurve" smooth="yes"/>
      <point x="642" y="328"/>
      <point x="463" y="349"/>
      <point x="423" y="360" type="qcurve"/>
      <point x="443" y="463" type="line"/>
      <point x="496" y="453"/>
      <point x="645" y="436"/>
      <point x="767" y="436" type="qcurve" smooth="yes"/>
      <point x="922" y="436"/>
      <point x="1142" y="614"/>
      <point x="1174" y="783" type="qcurve" smooth="yes"/>
      <point x="1205" y="938"/>
      <point x="1070" y="1131"/>
      <point x="925" y="1131" type="qcurve" smooth="yes"/>
      <point x="660" y="1131" type="line"/>
      <point x="634" y="1109" type="line"/>
      <point x="572" y="764" type="line"/>
      <point x="456" y="122" type="line"/>
      <point x="656" y="100" type="line"/>
      <point x="647" y="0" type="line"/>
      <point x="87" y="0" type="line"/>
      <point x="96" y="100" type="line"/>
      <point x="293" y="127" type="line"/>
      <point x="410" y="754" type="line"/>
      <point x="520" y="1362" type="line"/>
      <point x="337" y="1386" type="line"/>
      <point x="350" y="1500" type="line"/>
      <point x="911" y="1500" type="line"/>
      <point x="888" y="1386" type="line"/>
      <point x="674" y="1363" type="line"/>
    </contour>
  </outline>
</glyph>
<glyph name="OE" format="2">
  <advance width="2165"/>
  <unicode hex="0152"/>
  <outline>
    <contour>
      <point x="147.57142857142856" y="846" type="qcurve" smooth="yes"/>
      <point x="232.57142857142856" y="1172"/>
      <point x="736.5714285714286" y="1534"/>
      <point x="1012.5714285714286" y="1519" type="qcurve"/>
      <point x="1161.5714285714287" y="1511"/>
      <point x="1382.5714285714287" y="1500"/>
      <point x="1443.5714285714287" y="1500" type="qcurve" smooth="yes"/>
      <point x="2046.5714285714287" y="1500" type="line"/>
      <point x="2009.5714285714287" y="1152" type="line"/>
      <point x="1910.5714285714287" y="1152" type="line"/>
      <point x="1903.5714285714287" y="1382" type="line"/>
      <point x="1450.5714285714287" y="1382" type="line"/>
      <point x="1415.5714285714287" y="1362" type="line"/>
      <point x="1300.5714285714287" y="783" type="line"/>
      <point x="1178.5714285714287" y="135" type="line"/>
      <point x="1216.5714285714287" y="108" type="line"/>
      <point x="1732.5714285714287" y="108" type="line"/>
      <point x="1823.5714285714287" y="378" type="line"/>
      <point x="1923.5714285714287" y="378" type="line"/>
      <point x="1834.5714285714287" y="0" type="line"/>
      <point x="1099.5714285714287" y="0" type="line" smooth="yes"/>
      <point x="1006.5714285714286" y="0"/>
      <point x="726.5714285714286" y="-34"/>
      <point x="616.5714285714286" y="-17" type="qcurve" smooth="yes"/>
      <point x="331.57142857142856" y="27"/>
      <point x="59.57142857142857" y="508"/>
    </contour>
    <contour>
      <point x="334.57142857142856" y="849" type="qcurve" smooth="yes"/>
      <point x="244.57142857142856" y="491"/>
      <point x="515.5714285714286" y="97"/>
      <point x="741.5714285714286" y="97" type="qcurve" smooth="yes"/>
      <point x="882.5714285714286" y="97"/>
      <point x="963.5714285714286" y="112"/>
      <point x="1013.5714285714286" y="127" type="qcurve"/>
      <point x="1141.5714285714287" y="783" type="line"/>
      <point x="1250.5714285714287" y="1363" type="line"/>
      <point x="1208.5714285714287" y="1370"/>
      <point x="1050.5714285714287" y="1386"/>
      <point x="1015.5714285714286" y="1388" type="qcurve" smooth="yes"/>
      <point x="776.5714285714286" y="1401"/>
      <point x="412.57142857142856" y="1158"/>
    </contour>
    <contour>
      <point x="1218.5714285714287" y="768" type="line"/>
      <point x="1232.5714285714287" y="844" type="line"/>
      <point x="1661.5714285714287" y="854" type="line"/>
      <point x="1716.5714285714287" y="1003" type="line"/>
      <point x="1816.5714285714287" y="1003" type="line"/>
      <point x="1731.5714285714287" y="567" type="line"/>
      <point x="1631.5714285714287" y="567" type="line"/>
      <point x="1641.5714285714287" y="738" type="line"/>
    </contour>
  </outline>
</glyph>
<glyph name="commaaccentturnedcomb" format="2">
  <anchor x="97.0" y="1000" name="_top"/>
  <anchor x="211.0" y="1585.0" name="top"/>
  <outline>
    <contour>
      <point x="297" y="1587" type="line"/>
      <point x="258" y="1559"/>
      <point x="156" y="1453"/>
      <point x="138" y="1401" type="qcurve"/>
      <point x="199" y="1401"/>
      <point x="267" y="1336"/>
      <point x="267" y="1285" type="qcurve" smooth="yes"/>
      <point x="267" y="1236"/>
      <point x="191" y="1169"/>
      <point x="137" y="1169" type="qcurve" smooth="yes"/>
      <point x="86" y="1169"/>
      <point x="9" y="1252"/>
      <point x="9" y="1324" type="qcurve" smooth="yes"/>
      <point x="9" y="1413"/>
      <point x="163" y="1590"/>
      <point x="251" y="1643" type="qcurve"/>
    </contour>
  </outline>
</glyph>
<glyph name="hungarumlautcomb.case" format="2">
  <anchor x="98.0" y="1500" name="_top"/>
  <anchor x="194.0" y="1994" name="top"/>
  <outline>
    <contour>
      <point x="281.0" y="1957.0" type="qcurve" smooth="yes"/>
      <point x="281.0" y="1921.0"/>
      <point x="214.0" y="1860.0"/>
      <point x="169.0" y="1829.0" type="qcurve" smooth="yes"/>
      <point x="-113.0" y="1633.0" type="line"/>
      <point x="-179.0" y="1717.0" type="line"/>
      <point x="59.0" y="1951.0" type="line" smooth="yes"/>
      <point x="99.0" y="1991.0"/>
      <point x="161.0" y="2035.0"/>
      <point x="197.0" y="2035.0" type="qcurve" smooth="yes"/>
      <point x="233.0" y="2035.0"/>
      <point x="281.0" y="1993.0"/>
    </contour>
    <contour>
      <point x="671.0" y="1957.0" type="qcurve" smooth="yes"/>
      <point x="671.0" y="1921.0"/>
      <point x="604.0" y="1860.0"/>
      <point x="559.0" y="1829.0" type="qcurve" smooth="yes"/>
      <point x="277.0" y="1633.0" type="line"/>
      <point x="211.0" y="1717.0" type="line"/>
      <point x="449.0" y="1951.0" type="line" smooth="yes"/>
      <point x="489.0" y="1991.0"/>
      <point x="551.0" y="2035.0"/>
      <point x="587.0" y="2035.0" type="qcurve" smooth="yes"/>
      <point x="623.0" y="2035.0"/>
      <point x="671.0" y="1993.0"/>
    </contour>
  </outline>
</glyph>
